<svg width="24" height="25" viewBox="0 0 24 25" fill="none" xmlns="http://www.w3.org/2000/svg">
<path d="M12.042 22.4833C6.52799 22.4833 2.04199 17.9973 2.04199 12.4833C2.04199 6.96934 6.52799 2.48334 12.042 2.48334C17.556 2.48334 22.042 6.96934 22.042 12.4833C22.042 17.9973 17.556 22.4833 12.042 22.4833ZM12.042 4.48334C7.63099 4.48334 4.04199 8.07234 4.04199 12.4833C4.04199 16.8943 7.63099 20.4833 12.042 20.4833C16.453 20.4833 20.042 16.8943 20.042 12.4833C20.042 8.07234 16.453 4.48334 12.042 4.48334Z" fill="#FF0000"/>
<path d="M16.749 9.19034L15.334 7.77634L12.042 11.0693L8.74898 7.77634L7.33398 9.19034L10.627 12.4833L7.33398 15.7763L8.74898 17.1903L12.042 13.8983L15.334 17.1903L16.749 15.7763L13.456 12.4833L16.749 9.19034Z" fill="#FF0000"/>
</svg>
