<svg width="30" height="20" viewBox="0 0 24 21" fill="none" xmlns="http://www.w3.org/2000/svg">
<path d="M22.827 9.456C22.731 9.308 21.305 7.174 18.726 5.477L22.696 1.506L21.282 0.0919952L1.81097 19.564L3.22497 20.978L8.37097 15.832C9.46397 16.173 10.669 16.386 11.989 16.386C18.793 16.386 22.656 10.801 22.817 10.562L23.19 10.014L22.827 9.456ZM11.988 14.386C11.296 14.386 10.643 14.308 10.02 14.182L11.927 12.275C12.179 12.344 12.442 12.386 12.717 12.386C14.373 12.386 15.717 11.044 15.717 9.38599C15.717 9.11199 15.675 8.84799 15.606 8.59599L17.267 6.935C18.959 7.967 20.146 9.261 20.731 9.987C19.644 11.277 16.549 14.386 11.988 14.386Z" fill="#D4D4D4"/>
<path d="M4.604 13.942L6.057 12.489C4.716 11.592 3.754 10.59 3.245 9.986C4.315 8.65 7.399 5.386 11.989 5.386C12.367 5.386 12.731 5.415 13.088 5.458L14.804 3.742C13.93 3.523 12.996 3.386 11.989 3.386C5.173 3.386 1.311 9.208 1.151 9.456L0.789001 10.014L1.162 10.562C1.248 10.691 2.44 12.407 4.604 13.942Z" fill="#D4D4D4"/>
</svg>
