<svg width="30" height="20" viewBox="0 0 30 20" fill="none" xmlns="http://www.w3.org/2000/svg">
<path d="M29.2236 9.03904C28.9783 8.68838 23.097 0.472378 14.801 0.472378C6.50497 0.472378 0.623641 8.68838 0.378308 9.03904C0.0529745 9.49904 0.0529745 10.1137 0.378308 10.5737C0.623641 10.923 6.50497 19.139 14.801 19.139C23.097 19.139 28.9783 10.923 29.2236 10.5737C29.549 10.1124 29.549 9.49904 29.2236 9.03904ZM14.801 16.4724C9.24631 16.4724 4.73564 11.7057 3.15964 9.80438C4.73164 7.90304 9.22764 3.13904 14.801 3.13904C20.3556 3.13904 24.8663 7.90705 26.4423 9.80705C24.8703 11.7097 20.3743 16.4724 14.801 16.4724Z" fill="#D4D4D4"/>
<ellipse cx="14.801" cy="9.80571" rx="4.69524" ry="4.69524" fill="#D4D4D4"/>
</svg>
