<svg width="70" height="130" viewBox="0 0 70 130" fill="none" xmlns="http://www.w3.org/2000/svg">
<g clip-path="url(#clip0_2_22)">
<path d="M70 0.325653L0 6.79831L9.38078 129.326L62.3013 123.759L70 0.325653Z" fill="#3D6EA2"/>
<path d="M57.3845 60.8451L56.9316 48.9355C56.6728 41.8155 56.0259 36.6374 55.0555 33.3364C54.0203 30.0353 52.5323 26.9932 50.4621 24.2099C48.4566 21.4267 45.7394 19.2907 42.3752 17.8667C39.0111 16.4427 35.1941 15.7955 30.7948 15.9896C24.7135 16.2485 19.732 17.9962 15.915 21.103C12.098 24.2746 9.70424 27.8993 8.66912 31.8476C7.634 35.8607 7.24583 42.1392 7.43992 50.6831L28.4011 49.7122L28.207 43.8221C28.0129 38.1261 28.0776 34.4367 28.4658 32.8185C28.854 31.2004 29.8244 30.2942 31.4418 30.2295C32.7357 30.1648 33.5767 30.7473 34.0943 31.9124C34.5471 33.1422 34.8706 35.5371 35 39.097L35.5822 55.2787C35.7763 61.6219 35.7116 65.6349 35.3235 67.2531C34.9353 68.8712 33.8355 69.7774 32.0887 69.8421C29.8891 69.9716 28.6599 68.1592 28.4658 64.4698L9.38077 65.376L10.3512 92.1728L29.8891 91.2666L29.5009 80.7809C32.1534 85.3118 36.0351 87.383 41.0813 87.1888C44.963 86.9947 48.3272 85.5707 51.1737 82.9816C54.0203 80.3278 55.7671 77.3504 56.5434 74.0493C57.2551 70.6836 57.5139 66.2822 57.3845 60.8451Z" fill="#F10985"/>
<path d="M34.4824 96.2503L14.9445 97.2212L15.6562 116.704L35.1941 115.798L34.4824 96.2503Z" fill="#F10985"/>
<path d="M63.2717 52.5601L62.8189 40.6504C62.5601 33.5305 61.9131 28.3523 60.9427 25.0513C59.9076 21.7502 58.4196 18.7081 56.3494 15.9248C54.3438 13.1416 51.6266 11.0056 48.2625 9.58165C44.8983 8.15766 41.0813 7.5104 36.6821 7.70458C30.6008 7.96348 25.6192 9.7111 21.8022 12.818C17.9852 15.9248 15.5268 19.5495 14.4917 23.4979C13.4566 27.5109 13.0684 33.7894 13.2625 42.3333L34.2884 41.4271L34.0943 35.537C33.9002 29.8411 33.9649 26.1516 34.3531 24.5335C34.7412 22.9153 35.7117 22.0091 37.329 21.9444C38.6229 21.8797 39.464 22.4622 39.9815 23.6273C40.4344 24.8571 40.7579 27.252 40.8873 30.8119L41.4695 46.9936C41.6636 53.3368 41.5989 57.3498 41.2107 58.968C40.8226 60.5862 39.7227 61.4923 37.976 61.5571C35.7764 61.6865 34.5471 59.8742 34.3531 56.1848L15.268 57.0909L16.2385 83.8877L35.7764 82.9815L35.3882 72.4958C38.0407 77.0267 41.9224 79.0979 46.9686 78.9038C50.8503 78.7096 54.2144 77.2856 57.061 74.6965C59.9076 72.0428 61.6544 69.0653 62.4307 65.7643C63.207 62.3985 63.4658 57.9971 63.2717 52.5601Z" fill="#5CDFC9"/>
<path d="M35.9704 87.9652L16.4325 88.9361L17.0795 108.419L36.6174 107.513L35.9704 87.9652Z" fill="#5CDFC9"/>
</g>
<defs>
<clipPath id="clip0_2_22">
<rect width="70" height="129" fill="white" transform="translate(0 0.325653)"/>
</clipPath>
</defs>
</svg>
