<svg width="152" height="151" viewBox="0 0 152 151" fill="none" xmlns="http://www.w3.org/2000/svg">
<path d="M121.473 150.855C120.018 150.855 118.556 150.433 117.289 149.588L76.242 122.223L35.1948 149.588C32.5714 151.337 29.1263 151.277 26.5632 149.407C24.0152 147.545 22.8995 144.289 23.7664 141.251L37.6222 92.7403L3.06569 58.1838C0.909672 56.0354 0.268898 52.7863 1.42983 49.9669C2.59076 47.155 5.34985 45.3156 8.39541 45.3156H48.9677L69.5026 4.25334C72.0581 -0.850234 80.4334 -0.850234 82.989 4.25334L103.524 45.3156H144.089C147.134 45.3156 149.893 47.155 151.054 49.9669C152.215 52.7863 151.574 56.0354 149.418 58.1838L114.862 92.7403L128.718 141.251C129.584 144.289 128.469 147.545 125.921 149.407C124.594 150.372 123.034 150.855 121.473 150.855ZM76.242 105.624C77.6969 105.624 79.1594 106.053 80.4259 106.89L108.59 125.669L99.1515 92.6197C98.3901 89.9813 99.1289 87.1468 101.066 85.2169L125.891 60.3926H98.8575C96.0004 60.3926 93.3921 58.7794 92.1105 56.2238L76.242 24.4792L60.3734 56.2238C59.0919 58.7794 56.4836 60.3926 53.6265 60.3926H26.5934L51.4177 85.2169C53.3551 87.1543 54.0863 89.9888 53.3325 92.6197L43.8942 125.669L72.0581 106.89C73.3246 106.053 74.7871 105.624 76.242 105.624Z" fill="#757575"/>
</svg>
