<svg width="32" height="32" viewBox="0 0 32 32" fill="none" xmlns="http://www.w3.org/2000/svg">
<path d="M30.1136 1.88638C28.8976 0.668794 27.2784 0 25.5585 0C23.8401 0 22.2209 0.668794 21.0049 1.88638L2.75065 20.139C2.75065 20.139 2.74905 20.1438 2.74585 20.1454C2.61625 20.2766 2.39545 20.6222 2.32825 20.883L0.0482689 30.0093C-0.0893299 30.5533 0.0722687 31.1325 0.469065 31.5277L0.470665 31.5293L0.472265 31.5309C0.869062 31.9277 1.44506 32.0893 1.99065 31.9533L11.117 29.6701C11.3778 29.6029 11.725 29.3822 11.8546 29.2526C11.8562 29.251 11.861 29.2478 11.861 29.2478L30.1152 10.9967C31.3312 9.77912 32.0016 8.16313 32 6.44155C32 4.72156 31.3312 3.10397 30.1152 1.88638H30.1136ZM19.8577 7.56474L24.4385 12.1455L10.7298 25.8542L6.14902 21.2734L19.8577 7.56474ZM3.80024 28.2014L4.75223 24.403L7.6002 27.2526L3.80024 28.2014ZM27.8544 4.15036C29.0768 5.37435 29.0768 7.50874 27.8544 8.73273L26.704 9.88472L22.1185 5.30076L23.2721 4.15036C24.4961 2.92797 26.6304 2.92637 27.8544 4.15036Z" fill="#363DAA"/>
</svg>
