<svg width="25" height="25" viewBox="0 0 25 25" fill="none" xmlns="http://www.w3.org/2000/svg">
<path d="M12.084 22.6445C6.56998 22.6445 2.08398 18.1585 2.08398 12.6445C2.08398 7.13053 6.56998 2.64453 12.084 2.64453C17.598 2.64453 22.084 7.13053 22.084 12.6445C22.084 18.1585 17.598 22.6445 12.084 22.6445ZM12.084 4.64453C7.67298 4.64453 4.08398 8.23353 4.08398 12.6445C4.08398 17.0555 7.67298 20.6445 12.084 20.6445C16.495 20.6445 20.084 17.0555 20.084 12.6445C20.084 8.23353 16.495 4.64453 12.084 4.64453Z" fill="#5FA22B"/>
<path d="M11.243 17.5725L7.19995 13.5295L8.96695 11.7615L10.924 13.7175L15.066 7.91853L17.101 9.37153L11.243 17.5725Z" fill="#5FA22B"/>
</svg>
